<svg width="16" height="17" viewBox="0 0 16 17" fill="none" xmlns="http://www.w3.org/2000/svg">
<path d="M7.3 15.7998C7.11667 15.6165 7.02067 15.3831 7.012 15.0998C7.004 14.8165 7.09167 14.5831 7.275 14.3998L12.175 9.4998H1C0.716667 9.4998 0.479 9.4038 0.287 9.2118C0.0956668 9.02047 0 8.78314 0 8.4998C0 8.21647 0.0956668 7.9788 0.287 7.7868C0.479 7.59547 0.716667 7.4998 1 7.4998H12.175L7.275 2.5998C7.09167 2.41647 7.004 2.18314 7.012 1.8998C7.02067 1.61647 7.11667 1.38314 7.3 1.1998C7.48333 1.01647 7.71667 0.924805 8 0.924805C8.28333 0.924805 8.51667 1.01647 8.7 1.1998L15.3 7.7998C15.4 7.88314 15.471 7.98714 15.513 8.1118C15.5543 8.23714 15.575 8.36647 15.575 8.4998C15.575 8.63314 15.5543 8.75814 15.513 8.8748C15.471 8.99147 15.4 9.0998 15.3 9.1998L8.7 15.7998C8.51667 15.9831 8.28333 16.0748 8 16.0748C7.71667 16.0748 7.48333 15.9831 7.3 15.7998Z" fill="#1570EF"/>
</svg>
