<svg width="19" height="8" viewBox="0 0 19 8" fill="none" xmlns="http://www.w3.org/2000/svg">
<path d="M5.10685 2.77778C5.04088 2.57586 4.95391 2.39494 4.84596 2.23501C4.74 2.07307 4.61306 1.93513 4.46512 1.82118C4.31918 1.70723 4.15325 1.62026 3.96733 1.56029C3.78141 1.50032 3.57749 1.47033 3.35559 1.47033C2.99174 1.47033 2.66088 1.56429 2.36301 1.75221C2.06513 1.94013 1.82823 2.21701 1.6523 2.58286C1.47638 2.94871 1.38842 3.39752 1.38842 3.92929C1.38842 4.46107 1.47738 4.90988 1.6553 5.27573C1.83323 5.64157 2.07413 5.91846 2.378 6.10638C2.68187 6.2943 3.02373 6.38826 3.40357 6.38826C3.75542 6.38826 4.06529 6.31329 4.33318 6.16335C4.60306 6.01142 4.81297 5.79751 4.96291 5.52162C5.11485 5.24374 5.19081 4.91688 5.19081 4.54104L5.41872 4.58901H3.5715V3.92929H5.91051V4.58901C5.91051 5.0948 5.80256 5.53462 5.58665 5.90846C5.37274 6.2823 5.07686 6.57218 4.69902 6.77809C4.32318 6.98201 3.89136 7.08396 3.40357 7.08396C2.8598 7.08396 2.382 6.95602 1.97017 6.70013C1.56034 6.44423 1.24048 6.08039 1.01057 5.60859C0.78267 5.13678 0.668718 4.57702 0.668718 3.92929C0.668718 3.4435 0.733691 3.00668 0.863636 2.61884C0.995581 2.22901 1.1815 1.89715 1.4214 1.62326C1.6613 1.34938 1.94518 1.13947 2.27304 0.993529C2.6009 0.84759 2.96175 0.774621 3.35559 0.774621C3.67945 0.774621 3.98132 0.8236 4.26121 0.921559C4.54309 1.01752 4.79398 1.15446 5.01389 1.33239C5.2358 1.50831 5.42072 1.71922 5.56866 1.96512C5.71659 2.20902 5.81855 2.4799 5.87453 2.77778H5.10685ZM7.18422 7V0.858586H7.92791V3.59343H11.2025V0.858586H11.9462V7H11.2025V4.25316H7.92791V7H7.18422ZM16.122 0.0909085V7.76768H15.6302V0.0909085H16.122ZM18.377 2.77778H17.6333C17.5893 2.56387 17.5124 2.37595 17.4024 2.21401C17.2945 2.05208 17.1625 1.91614 17.0066 1.80619C16.8527 1.69423 16.6817 1.61027 16.4938 1.55429C16.3059 1.49832 16.11 1.47033 15.9061 1.47033C15.5342 1.47033 15.1974 1.56429 14.8955 1.75221C14.5956 1.94013 14.3567 2.21701 14.1788 2.58286C14.0029 2.94871 13.9149 3.39752 13.9149 3.92929C13.9149 4.46107 14.0029 4.90988 14.1788 5.27573C14.3567 5.64157 14.5956 5.91846 14.8955 6.10638C15.1974 6.2943 15.5342 6.38826 15.9061 6.38826C16.11 6.38826 16.3059 6.36027 16.4938 6.30429C16.6817 6.24832 16.8527 6.16535 17.0066 6.0554C17.1625 5.94344 17.2945 5.8065 17.4024 5.64457C17.5124 5.48064 17.5893 5.29272 17.6333 5.08081H18.377C18.321 5.39468 18.2191 5.67556 18.0711 5.92345C17.9232 6.17135 17.7393 6.38226 17.5194 6.55619C17.2995 6.72811 17.0526 6.85906 16.7787 6.94902C16.5068 7.03898 16.2159 7.08396 15.9061 7.08396C15.3823 7.08396 14.9165 6.95602 14.5086 6.70013C14.1008 6.44423 13.7799 6.08039 13.546 5.60859C13.3121 5.13678 13.1952 4.57702 13.1952 3.92929C13.1952 3.28157 13.3121 2.7218 13.546 2.25C13.7799 1.7782 14.1008 1.41435 14.5086 1.15846C14.9165 0.902567 15.3823 0.774621 15.9061 0.774621C16.2159 0.774621 16.5068 0.819602 16.7787 0.909564C17.0526 0.999526 17.2995 1.13147 17.5194 1.3054C17.7393 1.47732 17.9232 1.68724 18.0711 1.93513C18.2191 2.18103 18.321 2.46191 18.377 2.77778Z" fill="black"/>
</svg>
