<svg width="11" height="9" viewBox="0 0 11 9" fill="none" xmlns="http://www.w3.org/2000/svg">
<path d="M10.89 7.40745H0.11C0.0495 7.40745 0 7.45695 0 7.51746V8.28745C0 8.34795 0.0495 8.39746 0.11 8.39746H10.89C10.9505 8.39746 11 8.34795 11 8.28745V7.51746C11 7.45695 10.9505 7.40745 10.89 7.40745ZM0.738375 5.68595L1.28425 6.22908C1.32687 6.2717 1.397 6.2717 1.43962 6.22908L4.66675 3.01295L6.00875 4.35083C6.09143 4.43275 6.20311 4.47871 6.3195 4.47871C6.43589 4.47871 6.54757 4.43275 6.63025 4.35083L10.263 0.73183C10.3056 0.689205 10.3056 0.61908 10.263 0.576455L9.71712 0.0319551C9.69645 0.0114838 9.66853 0 9.63944 0C9.61034 0 9.58242 0.0114838 9.56175 0.0319551L6.32088 3.26321L4.9775 1.92533C4.89482 1.84341 4.78314 1.79745 4.66675 1.79745C4.55036 1.79745 4.43868 1.84341 4.356 1.92533L0.738375 5.53058C0.72809 5.54074 0.719923 5.55283 0.71435 5.56617C0.708776 5.5795 0.705906 5.59381 0.705906 5.60827C0.705906 5.62272 0.708776 5.63703 0.71435 5.65037C0.719923 5.6637 0.72809 5.6758 0.738375 5.68595Z" fill="black"/>
</svg>
