<svg width="8" height="10" viewBox="0 0 8 10" fill="none" xmlns="http://www.w3.org/2000/svg">
<path d="M0.662157 3.28843L3.37346 0.577127C3.4324 0.518186 3.49625 0.476534 3.56502 0.452172C3.63378 0.427416 3.70746 0.415039 3.78605 0.415039C3.86463 0.415039 3.93831 0.427416 4.00708 0.452172C4.07584 0.476534 4.13969 0.518186 4.19863 0.577127L6.90993 3.28843C7.01799 3.39649 7.07202 3.53402 7.07202 3.70102C7.07202 3.86802 7.01799 4.00555 6.90993 4.1136C6.80187 4.22166 6.66434 4.27569 6.49734 4.27569C6.33034 4.27569 6.19281 4.22166 6.08475 4.1136L3.78605 1.81489L1.48734 4.1136C1.37928 4.22166 1.24175 4.27569 1.07475 4.27569C0.907746 4.27569 0.770217 4.22166 0.662157 4.1136C0.554098 4.00554 0.500068 3.86802 0.500068 3.70102C0.500068 3.53401 0.554098 3.39649 0.662157 3.28843Z" fill="black"/>
<path d="M7.08613 6.53042L4.37483 9.24172C4.31589 9.30066 4.25204 9.34231 4.18328 9.36668C4.11451 9.39143 4.04083 9.40381 3.96225 9.40381C3.88366 9.40381 3.80998 9.39143 3.74122 9.36668C3.67245 9.34231 3.6086 9.30066 3.54966 9.24172L0.838358 6.53042C0.730299 6.42236 0.676269 6.28483 0.676269 6.11783C0.676269 5.95083 0.730299 5.8133 0.838358 5.70524C0.946417 5.59718 1.08395 5.54315 1.25095 5.54315C1.41795 5.54315 1.55548 5.59718 1.66354 5.70524L3.96225 8.00395L6.26096 5.70524C6.36901 5.59718 6.50654 5.54315 6.67354 5.54315C6.84055 5.54315 6.97807 5.59718 7.08613 5.70524C7.19419 5.8133 7.24822 5.95083 7.24822 6.11783C7.24822 6.28483 7.19419 6.42236 7.08613 6.53042Z" fill="black"/>
</svg>
