<svg width="20" height="20" viewBox="0 0 20 20" fill="none" xmlns="http://www.w3.org/2000/svg">
<path d="M6.5358 0.991322C6.68568 0.693343 6.9154 0.442868 7.19934 0.267844C7.48327 0.0928205 7.81026 0.000132359 8.1438 0.00012207H12.6606C12.9951 0.000133368 13.3229 0.0933291 13.6074 0.269256C13.8918 0.445183 14.1216 0.696882 14.271 0.996122L14.973 2.40012H17.001C17.7967 2.40012 18.5597 2.71619 19.1223 3.2788C19.6849 3.84141 20.001 4.60447 20.001 5.40012V8.03412C19.6506 7.73126 19.2423 7.50264 18.801 7.36212V5.40012C18.801 4.92273 18.6114 4.4649 18.2738 4.12733C17.9362 3.78976 17.4784 3.60012 17.001 3.60012H14.601C14.4899 3.5999 14.381 3.56881 14.2865 3.51033C14.192 3.45185 14.1156 3.36828 14.0658 3.26892L13.1982 1.53252C13.1484 1.43258 13.0717 1.34852 12.9767 1.28979C12.8817 1.23107 12.7723 1.20001 12.6606 1.20012H8.1438C8.0326 1.20001 7.92355 1.23082 7.82883 1.28909C7.73411 1.34736 7.65745 1.43081 7.6074 1.53012L6.7338 3.26892C6.68385 3.36805 6.60738 3.45138 6.51289 3.50964C6.41841 3.5679 6.30961 3.59881 6.1986 3.59892H3.801C3.32362 3.59892 2.86578 3.78856 2.52821 4.12613C2.19065 4.4637 2.001 4.92153 2.001 5.39892V15.0001C2.001 15.4775 2.19065 15.9353 2.52821 16.2729C2.86578 16.6105 3.32362 16.8001 3.801 16.8001H8.2602L8.0646 17.5837C8.03043 17.7203 8.00875 17.8596 7.9998 18.0001H3.7998C3.00415 18.0001 2.24109 17.6841 1.67848 17.1214C1.11588 16.5588 0.799805 15.7958 0.799805 15.0001V5.40012C0.799805 4.60447 1.11588 3.84141 1.67848 3.2788C2.24109 2.71619 3.00415 2.40012 3.7998 2.40012H5.8278L6.5358 0.991322ZM15.0606 8.46732C14.7795 7.33012 14.0924 6.3349 13.1286 5.66896C12.1649 5.00303 10.991 4.71231 9.82783 4.85153C8.6647 4.99074 7.59256 5.55029 6.8132 6.42486C6.03385 7.29943 5.60103 8.4287 5.5962 9.60012C5.5962 11.8681 7.1682 13.7677 9.2826 14.2705C9.35919 14.178 9.44008 14.0891 9.525 14.0041L10.329 13.2001C9.62289 13.1868 8.93629 12.9661 8.35468 12.5655C7.77308 12.1649 7.32215 11.602 7.05804 10.947C6.79394 10.292 6.72832 9.57382 6.86936 8.88181C7.01041 8.1898 7.35187 7.55456 7.85126 7.05518C8.35064 6.55579 8.98588 6.21432 9.67789 6.07328C10.3699 5.93224 11.0881 5.99786 11.7431 6.26196C12.3981 6.52607 12.9609 6.97699 13.3616 7.5586C13.7622 8.14021 13.9829 8.82681 13.9962 9.53292L15.0606 8.46732ZM16.167 9.05772L10.371 14.8537C10.0336 15.1915 9.79433 15.6146 9.6786 16.0777L9.2286 17.8753C9.18423 18.0541 9.18684 18.2413 9.23621 18.4188C9.28557 18.5963 9.37999 18.758 9.51031 18.8882C9.64062 19.0184 9.8024 19.1126 9.97992 19.1618C10.1574 19.211 10.3447 19.2135 10.5234 19.1689L12.321 18.7201C12.7844 18.6042 13.2075 18.3645 13.545 18.0265L19.341 12.2305C19.7564 11.8085 19.9881 11.2394 19.9857 10.6473C19.9833 10.0552 19.7469 9.48799 19.3282 9.06937C18.9094 8.65074 18.3421 8.41461 17.75 8.41243C17.1579 8.41025 16.5889 8.6422 16.167 9.05772Z" fill="black"/>
</svg>
