<svg width="51" height="51" viewBox="0 0 51 51" fill="none" xmlns="http://www.w3.org/2000/svg">
<circle cx="25.2838" cy="25.8514" r="24.4324" fill="white" stroke="#6CE9A6"/>
<path d="M15 26.2475C14.994 25.3421 15.91 24.8232 16.618 25.2234L16.713 25.2843L19.391 27.1791C20.363 27.8671 19.768 29.43 18.657 29.2871L18.54 29.2661L17.477 29.0204C18.0173 30.5905 18.9906 31.956 20.2727 32.9428C21.5548 33.9296 23.0876 34.493 24.6758 34.5612C26.264 34.6294 27.8355 34.1992 29.19 33.3256C30.5445 32.4519 31.6206 31.1744 32.281 29.6558C32.3946 29.4086 32.5957 29.2179 32.8415 29.1245C33.0872 29.0311 33.358 29.0424 33.5958 29.1561C33.8337 29.2697 34.0198 29.4767 34.1142 29.7326C34.2086 29.9886 34.2039 30.2732 34.101 30.5255C32.114 35.1154 27.205 37.6604 22.414 36.3118C20.3003 35.717 18.4305 34.4105 17.0914 32.5927C15.7522 30.7748 15.0176 28.5459 15 26.2475ZM25 19.8614C25.2652 19.8614 25.5196 19.9721 25.7071 20.1691C25.8947 20.3661 26 20.6332 26 20.9118V21.9621H28C28.2652 21.9621 28.5196 22.0728 28.7071 22.2697C28.8947 22.4667 29 22.7339 29 23.0124C29 23.291 28.8947 23.5582 28.7071 23.7551C28.5196 23.9521 28.2652 24.0628 28 24.0628H26V25.1131H27C27.6631 25.1131 28.299 25.3898 28.7678 25.8822C29.2366 26.3746 29.5 27.0425 29.5 27.739C29.5 28.4354 29.2366 29.1033 28.7678 29.5957C28.299 30.0881 27.6631 30.3648 27 30.3648H26V31.4151C26 31.6937 25.8947 31.9608 25.7071 32.1578C25.5196 32.3548 25.2652 32.4655 25 32.4655C24.7348 32.4655 24.4805 32.3548 24.2929 32.1578C24.1054 31.9608 24 31.6937 24 31.4151V30.3648H22C21.7348 30.3648 21.4805 30.2541 21.2929 30.0572C21.1054 29.8602 21 29.593 21 29.3145C21 29.0359 21.1054 28.7687 21.2929 28.5718C21.4805 28.3748 21.7348 28.2641 22 28.2641H24V27.2138H23C22.337 27.2138 21.7011 26.9371 21.2323 26.4447C20.7634 25.9523 20.5 25.2844 20.5 24.5879C20.5 23.8915 20.7634 23.2236 21.2323 22.7312C21.7011 22.2388 22.337 21.9621 23 21.9621H24V20.9118C24 20.6332 24.1054 20.3661 24.2929 20.1691C24.4805 19.9721 24.7348 19.8614 25 19.8614ZM27 27.2138H26V28.2641H27C27.1326 28.2641 27.2598 28.2088 27.3536 28.1103C27.4474 28.0118 27.5 27.8782 27.5 27.739C27.5 27.5997 27.4474 27.4661 27.3536 27.3676C27.2598 27.2691 27.1326 27.2138 27 27.2138ZM15.903 21.8067C17.89 17.2167 22.799 14.6728 27.59 16.0204C29.7037 16.615 31.5734 17.9212 32.9126 19.7389C34.2517 21.5566 34.9864 23.7854 35.004 26.0836C35.011 26.9901 34.094 27.51 33.387 27.1087L33.291 27.0478L30.613 25.153C29.641 24.4651 30.236 22.9022 31.347 23.045L31.464 23.066L32.527 23.3118C31.9867 21.7417 31.0135 20.3762 29.7314 19.3894C28.4493 18.4025 26.9164 17.8391 25.3283 17.771C23.7401 17.7028 22.1686 18.1329 20.8141 19.0066C19.4596 19.8802 18.3835 21.1578 17.723 22.6763C17.6706 22.805 17.5942 22.9213 17.4984 23.0185C17.4026 23.1157 17.2892 23.1918 17.165 23.2423C17.0408 23.2929 16.9082 23.3169 16.7751 23.3129C16.6419 23.3089 16.5109 23.2769 16.3896 23.219C16.2684 23.1611 16.1594 23.0783 16.069 22.9755C15.9786 22.8727 15.9087 22.7519 15.8634 22.6204C15.8181 22.4888 15.7982 22.349 15.805 22.2093C15.8118 22.0696 15.8452 21.9327 15.903 21.8067ZM24 24.0628H23C22.8674 24.0628 22.7402 24.1181 22.6465 24.2166C22.5527 24.3151 22.5 24.4487 22.5 24.5879C22.5 24.7272 22.5527 24.8608 22.6465 24.9593C22.7402 25.0578 22.8674 25.1131 23 25.1131H24V24.0628Z" fill="#6CE9A6"/>
</svg>
