<svg width="51" height="51" viewBox="0 0 51 51" fill="none" xmlns="http://www.w3.org/2000/svg">
<circle cx="25.2838" cy="25.7166" r="24.4324" fill="white" stroke="#6CE9A6"/>
<path d="M23 15.5391H27C27.5304 15.5391 28.0391 15.7604 28.4142 16.1543C28.7893 16.5483 29 17.0826 29 17.6397V19.7404H33C33.5304 19.7404 34.0391 19.9617 34.4142 20.3557C34.7893 20.7496 35 21.2839 35 21.8411V27.6494C34.4219 27.0932 33.7412 26.6678 33 26.3995V21.8411H17V33.3948H25.08C25.2 34.151 25.45 34.8547 25.8 35.4954H17C16.4696 35.4954 15.9609 35.2741 15.5858 34.8801C15.2107 34.4862 15 33.9519 15 33.3948V21.8411C15 20.6857 15.9 19.7404 17 19.7404H21V17.6397C21 16.4844 21.9 15.5391 23 15.5391ZM27 19.7404V17.6397H23V19.7404H27ZM32 32.8696V31.2941H28V29.1934H32V27.6179L35 30.2437L32 32.8696ZM30 33.3948H34V35.4954H30V37.0709L27 34.4451L30 31.8192V33.3948Z" fill="#6CE9A6"/>
</svg>
