<svg width="73" height="73" viewBox="0 0 73 73" fill="none" xmlns="http://www.w3.org/2000/svg">
<circle cx="36.5" cy="36.5" r="36.5" fill="#728A92"/>
<path d="M31.7698 21.3107C31.9473 21.7522 31.9505 22.2496 31.7788 22.6936C31.6072 23.1376 31.2746 23.4918 30.8544 23.6783C28.3597 24.7845 26.2308 26.6385 24.7339 29.0087C23.2371 31.3789 22.4387 34.16 22.4387 37.0042C22.4387 39.8484 23.2371 42.6295 24.7339 44.9997C26.2308 47.3699 28.3597 49.2239 30.8544 50.3301C31.0672 50.419 31.2609 50.5516 31.4243 50.7202C31.5876 50.8888 31.7173 51.0899 31.8056 51.3118C31.894 51.5337 31.9393 51.7719 31.939 52.0125C31.9386 52.253 31.8925 52.491 31.8034 52.7126C31.7143 52.9342 31.5839 53.1348 31.4201 53.3028C31.2562 53.4708 31.062 53.6028 30.8489 53.691C30.6359 53.7791 30.4082 53.8217 30.1792 53.8163C29.9503 53.8109 29.7247 53.7575 29.5156 53.6593C26.3982 52.2763 23.738 49.9588 21.8677 46.9965C19.9974 44.0343 18.9999 40.5587 19 37.0042C19 29.5126 23.3398 23.0873 29.5139 20.3491C29.7221 20.2566 29.9457 20.208 30.1718 20.2063C30.3979 20.2045 30.6221 20.2496 30.8316 20.3389C31.0411 20.4282 31.2318 20.56 31.3928 20.7267C31.5538 20.8935 31.6819 21.0919 31.7698 21.3107ZM42.8998 20.3491C46.0174 21.7319 48.6777 24.0494 50.548 27.0117C52.4183 29.974 53.4157 33.4497 53.4154 37.0042C53.4154 44.4958 49.0756 50.9193 42.9015 53.6593C42.4812 53.8462 42.0074 53.8501 41.5843 53.6701C41.1612 53.4902 40.8236 53.141 40.6456 52.6995C40.4676 52.2581 40.4639 51.7604 40.6352 51.316C40.8066 50.8717 41.139 50.517 41.5593 50.3301C44.054 49.2239 46.1829 47.3699 47.6798 44.9997C49.1766 42.6295 49.975 39.8484 49.975 37.0042C49.975 34.16 49.1766 31.3789 47.6798 29.0087C46.1829 26.6385 44.054 24.7845 41.5593 23.6783C41.139 23.4914 40.8066 23.1367 40.6352 22.6924C40.4639 22.248 40.4676 21.7503 40.6456 21.3089C40.8236 20.8674 41.1612 20.5183 41.5843 20.3383C42.0074 20.1583 42.4812 20.1622 42.9015 20.3491H42.8998ZM36.2077 26.1599C36.6641 26.1599 37.1018 26.3503 37.4245 26.6893C37.7472 27.0282 37.9285 27.4879 37.9285 27.9673V29.7747H41.37C41.8264 29.7747 42.2641 29.9651 42.5868 30.304C42.9095 30.643 43.0908 31.1027 43.0908 31.582C43.0908 32.0614 42.9095 32.5211 42.5868 32.8601C42.2641 33.199 41.8264 33.3894 41.37 33.3894H37.9285V35.1968H39.6493C40.7902 35.1968 41.8844 35.6729 42.6912 36.5202C43.4979 37.3676 43.9512 38.5169 43.9512 39.7153C43.9512 40.9137 43.4979 42.0629 42.6912 42.9103C41.8844 43.7577 40.7902 44.2337 39.6493 44.2337H37.9285V46.0411C37.9285 46.5205 37.7472 46.9802 37.4245 47.3191C37.1018 47.6581 36.6641 47.8485 36.2077 47.8485C35.7513 47.8485 35.3137 47.6581 34.9909 47.3191C34.6682 46.9802 34.4869 46.5205 34.4869 46.0411V44.2337H31.0454C30.589 44.2337 30.1513 44.0433 29.8286 43.7044C29.5059 43.3654 29.3246 42.9057 29.3246 42.4264C29.3246 41.947 29.5059 41.4873 29.8286 41.1483C30.1513 40.8094 30.589 40.619 31.0454 40.619H34.4869V38.8116H32.7662C31.6252 38.8116 30.531 38.3355 29.7242 37.4882C28.9175 36.6408 28.4642 35.4915 28.4642 34.2931C28.4642 33.0948 28.9175 31.9455 29.7242 31.0981C30.531 30.2507 31.6252 29.7747 32.7662 29.7747H34.4869V27.9673C34.4869 27.4879 34.6682 27.0282 34.9909 26.6893C35.3137 26.3503 35.7513 26.1599 36.2077 26.1599ZM39.6493 38.8116H37.9285V40.619H39.6493C39.8774 40.619 40.0963 40.5238 40.2576 40.3543C40.419 40.1848 40.5096 39.955 40.5096 39.7153C40.5096 39.4756 40.419 39.2457 40.2576 39.0763C40.0963 38.9068 39.8774 38.8116 39.6493 38.8116ZM34.4869 33.3894H32.7662C32.538 33.3894 32.3191 33.4846 32.1578 33.6541C31.9964 33.8236 31.9058 34.0535 31.9058 34.2931C31.9058 34.5328 31.9964 34.7627 32.1578 34.9321C32.3191 35.1016 32.538 35.1968 32.7662 35.1968H34.4869V33.3894Z" fill="#6CE9A6"/>
</svg>
