<svg width="73" height="73" viewBox="0 0 73 73" fill="none" xmlns="http://www.w3.org/2000/svg">
<circle opacity="0.5" cx="36.5" cy="36.5" r="36.5" fill="#D9D9D9"/>
<path d="M31.8889 52.9681C31.4009 52.9681 30.9922 52.7944 30.6627 52.4471C30.332 52.101 30.1667 51.6717 30.1667 51.1592V49.3503H26.7222C26.2343 49.3503 25.8249 49.1766 25.4943 48.8293C25.1648 48.4832 25 48.0539 25 47.5414C25 47.0288 25.1648 46.5995 25.4943 46.2534C25.8249 45.9061 26.2343 45.7324 26.7222 45.7324H28.4444V27.6434H26.7222C26.2343 27.6434 25.8249 27.4703 25.4943 27.1242C25.1648 26.7769 25 26.347 25 25.8344C25 25.3219 25.1648 24.892 25.4943 24.5447C25.8249 24.1986 26.2343 24.0255 26.7222 24.0255H30.1667V22.2166C30.1667 21.7041 30.332 21.2742 30.6627 20.9269C30.9922 20.5808 31.4009 20.4077 31.8889 20.4077C32.3769 20.4077 32.7862 20.5808 33.1168 20.9269C33.4464 21.2742 33.6111 21.7041 33.6111 22.2166V24.0255H37.0556V22.2166C37.0556 21.7041 37.2209 21.2742 37.5516 20.9269C37.8811 20.5808 38.2898 20.4077 38.7778 20.4077C39.2657 20.4077 39.6751 20.5808 40.0057 20.9269C40.3352 21.2742 40.5 21.7041 40.5 22.2166V24.2516C41.9926 24.6737 43.2269 25.5251 44.2028 26.8058C45.1787 28.0877 45.6667 29.5729 45.6667 31.2612C45.6667 32.1355 45.5231 32.9718 45.2361 33.7701C44.9491 34.5697 44.5472 35.286 44.0306 35.9191C45.0352 36.5522 45.8458 37.4115 46.4623 38.4968C47.08 39.5822 47.3889 40.7881 47.3889 42.1146C47.3889 44.1044 46.7144 45.8078 45.3653 47.2248C44.0162 48.6418 42.3944 49.3503 40.5 49.3503V51.1592C40.5 51.6717 40.3352 52.101 40.0057 52.4471C39.6751 52.7944 39.2657 52.9681 38.7778 52.9681C38.2898 52.9681 37.8811 52.7944 37.5516 52.4471C37.2209 52.101 37.0556 51.6717 37.0556 51.1592V49.3503H33.6111V51.1592C33.6111 51.6717 33.4464 52.101 33.1168 52.4471C32.7862 52.7944 32.3769 52.9681 31.8889 52.9681ZM31.8889 34.879H38.7778C39.725 34.879 40.5362 34.5244 41.2113 33.8154C41.8852 33.1075 42.2222 32.2561 42.2222 31.2612C42.2222 30.2663 41.8852 29.4143 41.2113 28.7052C40.5362 27.9973 39.725 27.6434 38.7778 27.6434H31.8889V34.879ZM31.8889 45.7324H40.5C41.4472 45.7324 42.2584 45.3785 42.9335 44.6706C43.6075 43.9615 43.9444 43.1095 43.9444 42.1146C43.9444 41.1197 43.6075 40.2677 42.9335 39.5586C42.2584 38.8508 41.4472 38.4968 40.5 38.4968H31.8889V45.7324Z" fill="#6CE9A6"/>
</svg>
