<svg width="51" height="51" viewBox="0 0 51 51" fill="none" xmlns="http://www.w3.org/2000/svg">
<circle cx="25.554" cy="25.8514" r="24.4324" fill="white" stroke="#6CE9A6"/>
<path d="M25.19 14.7906L18.19 18.0571C17.47 18.3932 17 19.1494 17 19.9792V24.9158C17 30.7451 20.84 36.1964 26 37.5198C31.16 36.1964 35 30.7451 35 24.9158V19.9792C35 19.1494 34.53 18.3932 33.81 18.0571L26.81 14.7906C26.3 14.549 25.7 14.549 25.19 14.7906ZM23.29 30.4721L20.7 27.7517C20.6074 27.6544 20.534 27.539 20.4839 27.4119C20.4338 27.2849 20.408 27.1487 20.408 27.0112C20.408 26.8737 20.4338 26.7375 20.4839 26.6105C20.534 26.4834 20.6074 26.368 20.7 26.2707C20.7926 26.1735 20.9025 26.0963 21.0235 26.0437C21.1444 25.9911 21.2741 25.964 21.405 25.964C21.5359 25.964 21.6656 25.9911 21.7865 26.0437C21.9075 26.0963 22.0174 26.1735 22.11 26.2707L24 28.2453L29.88 22.0694C29.9726 21.9721 30.0825 21.895 30.2035 21.8424C30.3244 21.7897 30.4541 21.7627 30.585 21.7627C30.7159 21.7627 30.8456 21.7897 30.9665 21.8424C31.0875 21.895 31.1974 21.9721 31.29 22.0694C31.3826 22.1666 31.456 22.2821 31.5061 22.4091C31.5562 22.5362 31.582 22.6723 31.582 22.8099C31.582 22.9474 31.5562 23.0836 31.5061 23.2106C31.456 23.3377 31.3826 23.4531 31.29 23.5503L24.7 30.4721C24.6075 30.5694 24.4976 30.6467 24.3766 30.6994C24.2557 30.7521 24.126 30.7792 23.995 30.7792C23.864 30.7792 23.7343 30.7521 23.6134 30.6994C23.4924 30.6467 23.3825 30.5694 23.29 30.4721Z" fill="#6CE9A6"/>
</svg>
