<svg width="73" height="73" viewBox="0 0 73 73" fill="none" xmlns="http://www.w3.org/2000/svg">
<circle cx="36.5" cy="36.5" r="36.5" fill="#728A92"/>
<path fill-rule="evenodd" clip-rule="evenodd" d="M25.2222 21.9486C25.2222 22.3974 25.392 22.8278 25.6941 23.1451C25.9962 23.4625 26.406 23.6408 26.8333 23.6408V33.794H23.6111C23.1838 33.794 22.774 33.9723 22.4719 34.2896C22.1697 34.607 22 35.0374 22 35.4862C22 35.935 22.1697 36.3654 22.4719 36.6828C22.774 37.0001 23.1838 37.1784 23.6111 37.1784H26.8333V47.3316C26.406 47.3316 25.9962 47.5099 25.6941 47.8273C25.392 48.1446 25.2222 48.575 25.2222 49.0238C25.2222 49.4726 25.392 49.9031 25.6941 50.2204C25.9962 50.5378 26.406 50.7161 26.8333 50.7161H36.5C38.4042 50.7161 40.2897 50.3221 42.0489 49.5567C43.8081 48.7914 45.4066 47.6696 46.753 46.2553C48.0995 44.8411 49.1676 43.1622 49.8963 41.3144C50.6249 39.4666 51 37.4862 51 35.4862C51 33.4862 50.6249 31.5058 49.8963 29.658C49.1676 27.8102 48.0995 26.1313 46.753 24.7171C45.4066 23.3028 43.8081 22.181 42.0489 21.4157C40.2897 20.6503 38.4042 20.2563 36.5 20.2563H26.8333C26.406 20.2563 25.9962 20.4346 25.6941 20.752C25.392 21.0693 25.2222 21.4998 25.2222 21.9486ZM30.0556 37.1784V47.3316H36.5C37.981 47.3316 39.4475 47.0252 40.8158 46.43C42.1841 45.8347 43.4274 44.9621 44.4746 43.8622C45.5218 42.7622 46.3525 41.4564 46.9193 40.0193C47.4861 38.5821 47.7778 37.0418 47.7778 35.4862C47.7778 33.9306 47.4861 32.3903 46.9193 30.9531C46.3525 29.516 45.5218 28.2102 44.4746 27.1102C43.4274 26.0103 42.1841 25.1377 40.8158 24.5424C39.4475 23.9472 37.981 23.6408 36.5 23.6408H30.0556V33.794H38.1111C38.5384 33.794 38.9482 33.9723 39.2503 34.2896C39.5525 34.607 39.7222 35.0374 39.7222 35.4862C39.7222 35.935 39.5525 36.3654 39.2503 36.6828C38.9482 37.0001 38.5384 37.1784 38.1111 37.1784H30.0556Z" fill="#6CE9A6"/>
</svg>
