<svg width="51" height="51" viewBox="0 0 51 51" fill="none" xmlns="http://www.w3.org/2000/svg">
<circle cx="25.4188" cy="25.7166" r="24.4324" fill="white" stroke="#6CE9A6"/>
<path d="M19 19.7912C19 17.4699 20.79 15.5898 23 15.5898C25.21 15.5898 27 17.4699 27 19.7912C27 22.1124 25.21 23.9925 23 23.9925C20.79 23.9925 19 22.1124 19 19.7912ZM25 30.5046C25 29.4963 25.5 28.551 26.2 27.9208V27.6687C26.2 27.2591 26.27 26.8704 26.38 26.4923C25.35 26.2402 24.21 26.0932 23 26.0932C18.58 26.0932 15 27.9733 15 30.2945V32.3952H25V30.5046ZM35 30.6096V34.2858C35 34.916 34.4 35.5462 33.7 35.5462H28.2C27.6 35.5462 27 34.916 27 34.1808V30.5046C27 29.8744 27.6 29.2442 28.2 29.2442V27.6687C28.2 26.1982 29.6 25.0429 31 25.0429C32.4 25.0429 33.8 26.1982 33.8 27.6687V29.2442C34.4 29.2442 35 29.8744 35 30.6096ZM32.5 27.6687C32.5 26.8284 31.8 26.3033 31 26.3033C30.2 26.3033 29.5 26.8284 29.5 27.6687V29.2442H32.5V27.6687Z" fill="#6CE9A6"/>
</svg>
