<svg width="40" height="39" viewBox="0 0 40 39" fill="none" xmlns="http://www.w3.org/2000/svg">
<path d="M38.75 8.34083C37.3433 8.93677 35.855 9.32938 34.332 9.50626C35.9326 8.59249 37.1362 7.1408 37.7172 5.42345C36.204 6.28617 34.5512 6.89149 32.8297 7.21349C32.1048 6.47274 31.2329 5.88346 30.2671 5.48145C29.3014 5.07945 28.2618 4.87312 27.2117 4.87501C22.9602 4.87501 19.5195 8.18087 19.5195 12.2561C19.5165 12.8229 19.5831 13.3881 19.718 13.9395C16.6693 13.8001 13.684 13.0418 10.9531 11.7132C8.22222 10.3845 5.80585 8.51463 3.85859 6.22325C3.17545 7.34612 2.81417 8.62727 2.8125 9.93282C2.8125 12.4922 4.18203 14.7545 6.25 16.0799C5.02479 16.0515 3.82468 15.7354 2.75156 15.1582V15.2496C2.75156 18.8297 5.40781 21.808 8.92344 22.4859C8.26233 22.6578 7.58107 22.7448 6.89687 22.7449C6.41139 22.7458 5.92701 22.6998 5.45078 22.6078C6.42812 25.5404 9.27266 27.6733 12.6422 27.7342C9.9042 29.7915 6.54267 30.9035 3.08594 30.8953C2.47236 30.8944 1.85935 30.8588 1.25 30.7887C4.76655 32.978 8.85425 34.1361 13.0266 34.125C27.1953 34.125 34.9359 22.8744 34.9359 13.1168C34.9359 12.7969 34.9273 12.477 34.9117 12.1647C36.4141 11.1227 37.7139 9.82779 38.75 8.34083Z" fill="white"/>
</svg>
