<svg width="11" height="15" viewBox="0 0 11 15" fill="none" xmlns="http://www.w3.org/2000/svg">
<path d="M5.5 11C5.13533 11 4.78559 10.8551 4.52773 10.5973C4.26987 10.3394 4.125 9.98967 4.125 9.625C4.125 8.86187 4.73688 8.25 5.5 8.25C5.86467 8.25 6.21441 8.39487 6.47227 8.65273C6.73013 8.91059 6.875 9.26033 6.875 9.625C6.875 9.98967 6.73013 10.3394 6.47227 10.5973C6.21441 10.8551 5.86467 11 5.5 11ZM9.625 13.0625V6.1875H1.375V13.0625H9.625ZM9.625 4.8125C9.98967 4.8125 10.3394 4.95737 10.5973 5.21523C10.8551 5.47309 11 5.82283 11 6.1875V13.0625C11 13.4272 10.8551 13.7769 10.5973 14.0348C10.3394 14.2926 9.98967 14.4375 9.625 14.4375H1.375C1.01033 14.4375 0.660591 14.2926 0.402728 14.0348C0.144866 13.7769 0 13.4272 0 13.0625V6.1875C0 5.42438 0.611875 4.8125 1.375 4.8125H2.0625V3.4375C2.0625 2.52582 2.42466 1.65148 3.06932 1.00682C3.71398 0.362164 4.58832 0 5.5 0C5.95142 0 6.39842 0.0889136 6.81547 0.261664C7.23253 0.434415 7.61148 0.687619 7.93068 1.00682C8.24988 1.32602 8.50309 1.70497 8.67584 2.12203C8.84859 2.53908 8.9375 2.98608 8.9375 3.4375V4.8125H9.625ZM5.5 1.375C4.95299 1.375 4.42839 1.5923 4.04159 1.97909C3.6548 2.36589 3.4375 2.89049 3.4375 3.4375V4.8125H7.5625V3.4375C7.5625 2.89049 7.3452 2.36589 6.95841 1.97909C6.57161 1.5923 6.04701 1.375 5.5 1.375Z" fill="black"/>
</svg>
