<svg width="73" height="20" viewBox="0 0 73 20" fill="none" xmlns="http://www.w3.org/2000/svg">
<g clip-path="url(#clip0_130_696)">
<path d="M0.313477 4.73143H4.61346L7.1095 10.9281L9.64222 4.73143H13.8329L7.52856 19.4199H3.31973L5.05073 15.5359L0.313477 4.73143ZM18.1873 4.48424C14.9623 4.48424 12.9218 7.29135 12.9218 10.0807C12.9218 13.2232 15.1629 15.7125 18.1327 15.7125C20.3556 15.7125 21.1937 14.4061 21.1937 14.4061V15.4301H24.9469V4.73143H21.1937V5.7024C21.1754 5.7024 20.2462 4.48424 18.1873 4.48424ZM18.989 7.92682C20.4831 7.92682 21.2483 9.07443 21.2483 10.0983C21.2483 11.2105 20.4285 12.3052 18.989 12.3052C17.8048 12.3052 16.7298 11.3695 16.7298 10.1514C16.7298 8.91543 17.5862 7.92682 18.989 7.92682ZM26.2225 15.4299V0H30.1398V5.73768C30.1398 5.73768 31.0689 4.48424 33.0185 4.48424C35.4053 4.48424 36.8084 6.21441 36.8084 8.66838V15.4301H32.9091V9.58644C32.9091 8.75656 32.5084 7.94445 31.5791 7.94445C30.6316 7.94445 30.1398 8.75656 30.1398 9.58644V15.4301L26.2225 15.4299ZM43.4951 4.48438C39.7963 4.48438 37.5918 7.20316 37.5918 10.1339C37.5918 13.4529 40.2519 15.7303 43.5133 15.7303C46.6654 15.7303 49.4165 13.5588 49.4165 10.1868C49.4165 6.49701 46.5195 4.48438 43.4951 4.48438ZM43.5315 7.94473C44.8433 7.94473 45.7361 9.00389 45.7361 10.1161C45.7361 11.0694 44.898 12.2523 43.5315 12.2523C42.2743 12.2523 41.3451 11.2813 41.3451 10.0985C41.3451 8.98625 42.1103 7.94473 43.5315 7.94473ZM55.9394 4.48438C52.2406 4.48438 50.036 7.20316 50.036 10.1339C50.036 13.4529 52.6961 15.7303 55.9576 15.7303C59.1098 15.7303 61.8609 13.5588 61.8609 10.1868C61.8609 6.49701 58.9821 4.48438 55.9394 4.48438ZM55.9758 7.94473C57.2876 7.94473 58.1805 9.00389 58.1805 10.1161C58.1805 11.0694 57.3423 12.2523 55.9758 12.2523C54.7186 12.2523 53.7893 11.2813 53.7893 10.0985C53.7893 8.98625 54.5729 7.94473 55.9758 7.94473ZM64.9582 10.6105C66.3976 10.6105 67.5637 11.7403 67.5637 13.1351C67.5637 14.5296 66.3976 15.6596 64.9583 15.6596C63.5189 15.6596 62.3528 14.5298 62.3528 13.1351C62.3528 11.7403 63.5189 10.6105 64.9583 10.6105H64.9582ZM68.4202 9.6924H63.7374L67.8917 0H72.556L68.4202 9.6924Z" fill="#7C7D7D"/>
</g>
<defs>
<clipPath id="clip0_130_696">
<rect width="72.2426" height="19.5508" fill="white" transform="translate(0.313477)"/>
</clipPath>
</defs>
</svg>
