<svg width="43" height="43" viewBox="0 0 43 43" fill="none" xmlns="http://www.w3.org/2000/svg">
<path d="M21.4999 3.65503C11.6458 3.65503 3.58325 11.6996 3.58325 21.6075C3.58325 30.5659 10.1408 38.0013 18.7049 39.345V26.8034H14.1541V21.6075H18.7049V17.6479C18.7049 13.1509 21.3745 10.6784 25.4774 10.6784C27.4303 10.6784 29.4728 11.0188 29.4728 11.0188V15.4442H27.2153C24.9937 15.4442 24.2949 16.8238 24.2949 18.2392V21.6075H29.2758L28.4695 26.8034H24.2949V39.345C28.5169 38.6782 32.3614 36.5241 35.1344 33.2714C37.9074 30.0187 39.4262 25.8818 39.4166 21.6075C39.4166 11.6996 31.3541 3.65503 21.4999 3.65503Z" fill="white"/>
</svg>
