<svg width="9" height="10" viewBox="0 0 9 10" fill="none" xmlns="http://www.w3.org/2000/svg">
<path d="M9 8.1H0V7.2H0.45V4.06395C0.45 1.81935 2.2635 0 4.5 0C6.7365 0 8.55 1.81935 8.55 4.06395V7.2H9V8.1ZM1.35 7.2H7.65V4.06395C7.65 2.3166 6.2397 0.9 4.5 0.9C2.7603 0.9 1.35 2.3166 1.35 4.06395V7.2ZM3.375 8.55H5.625C5.625 8.84837 5.50647 9.13452 5.2955 9.3455C5.08452 9.55647 4.79837 9.675 4.5 9.675C4.20163 9.675 3.91548 9.55647 3.7045 9.3455C3.49353 9.13452 3.375 8.84837 3.375 8.55Z" fill="black"/>
</svg>
