<svg width="20" height="18" viewBox="0 0 20 18" fill="none" xmlns="http://www.w3.org/2000/svg">
<path d="M10.0924 3.65418C11.6752 3.64892 13.2273 4.09041 14.5703 4.92791C15.9134 5.7654 16.9928 6.9649 17.6846 8.38851C17.1853 9.41698 16.4791 10.3313 15.6101 11.0742L16.8238 12.2879C18.0203 11.2291 18.9671 9.90349 19.5611 8.38851C18.0719 4.60965 14.3964 1.93261 10.0924 1.93261C8.99923 1.93261 7.94907 2.10476 6.95917 2.42326L8.37947 3.84355C8.93898 3.73165 9.5071 3.65418 10.0924 3.65418ZM9.17139 4.63548L10.9532 6.4173C11.4439 6.6325 11.8398 7.02846 12.055 7.51911L13.8369 9.30094C13.9057 9.00827 13.9574 8.69839 13.9574 8.3799C13.966 6.24515 12.2272 4.51497 10.0924 4.51497C9.77394 4.51497 9.47266 4.55801 9.17139 4.63548ZM1.49317 1.82071L3.80008 4.12761C2.38006 5.23903 1.28336 6.71022 0.623779 8.38851C2.11294 12.1674 5.7885 14.8444 10.0924 14.8444C11.4008 14.8444 12.6576 14.5948 13.811 14.1386L16.7549 17.0824L17.9686 15.8687L2.70688 0.598389L1.49317 1.82071ZM7.94907 8.2766L10.1957 10.5233C10.1613 10.5319 10.1269 10.5405 10.0924 10.5405C9.52169 10.5405 8.97433 10.3137 8.57076 9.91018C8.16719 9.5066 7.94046 8.95924 7.94046 8.38851C7.94046 8.34547 7.94907 8.31964 7.94907 8.2766ZM5.0224 5.34993L6.52877 6.85631C6.32469 7.34137 6.21934 7.86225 6.21889 8.38851C6.22001 9.02895 6.37966 9.65916 6.68361 10.2229C6.98755 10.7866 7.42632 11.2663 7.96077 11.6192C8.49523 11.9721 9.10873 12.1872 9.74653 12.2453C10.3843 12.3034 11.0266 12.2027 11.616 11.9522L12.4596 12.7957C11.7021 13.0023 10.9102 13.1228 10.0924 13.1228C8.50967 13.1281 6.95755 12.6866 5.61452 11.8491C4.27148 11.0116 3.19204 9.81211 2.50029 8.38851C3.10284 7.15758 3.98085 6.14185 5.0224 5.34993Z" fill="black" fill-opacity="0.5"/>
</svg>
