<svg width="16" height="18" viewBox="0 0 16 18" fill="none" xmlns="http://www.w3.org/2000/svg">
<path d="M12.1668 8.16667V5.66667C12.1668 3.36548 10.3013 1.5 8.00016 1.5C5.69898 1.5 3.8335 3.36548 3.8335 5.66667V8.16667M5.3335 16.5H10.6668C12.067 16.5 12.767 16.5 13.3018 16.2275C13.7722 15.9878 14.1547 15.6054 14.3943 15.135C14.6668 14.6002 14.6668 13.9001 14.6668 12.5V12.1667C14.6668 10.7665 14.6668 10.0665 14.3943 9.53169C14.1547 9.06128 13.7722 8.67883 13.3018 8.43915C12.767 8.16667 12.067 8.16667 10.6668 8.16667H5.3335C3.93336 8.16667 3.2333 8.16667 2.69852 8.43915C2.22811 8.67883 1.84566 9.06128 1.60598 9.53169C1.3335 10.0665 1.3335 10.7665 1.3335 12.1667V12.5C1.3335 13.9001 1.3335 14.6002 1.60598 15.135C1.84566 15.6054 2.22811 15.9878 2.69852 16.2275C3.2333 16.5 3.93336 16.5 5.3335 16.5Z" stroke="#667085" stroke-width="1.66667" stroke-linecap="round" stroke-linejoin="round"/>
</svg>
