<svg width="43" height="43" viewBox="0 0 43 43" fill="none" xmlns="http://www.w3.org/2000/svg">
<path d="M21.4999 3.58337C26.3679 3.58337 26.9753 3.60129 28.8852 3.69087C30.7933 3.78046 32.0923 4.07967 33.2353 4.524C34.4178 4.97908 35.414 5.59542 36.4102 6.58979C37.3212 7.48544 38.0262 8.56885 38.476 9.76462C38.9185 10.9059 39.2195 12.2067 39.3091 14.1148C39.3933 16.0247 39.4166 16.6321 39.4166 21.5C39.4166 26.368 39.3987 26.9754 39.3091 28.8853C39.2195 30.7934 38.9185 32.0924 38.476 33.2355C38.0275 34.4319 37.3223 35.5156 36.4102 36.4103C35.5143 37.321 34.4309 38.0259 33.2353 38.4761C32.094 38.9186 30.7933 39.2196 28.8852 39.3092C26.9753 39.3934 26.3679 39.4167 21.4999 39.4167C16.632 39.4167 16.0246 39.3988 14.1147 39.3092C12.2065 39.2196 10.9076 38.9186 9.7645 38.4761C8.56825 38.0272 7.48465 37.3222 6.58967 36.4103C5.67844 35.5148 4.97346 34.4313 4.52388 33.2355C4.07954 32.0942 3.78034 30.7934 3.69075 28.8853C3.60654 26.9754 3.58325 26.368 3.58325 21.5C3.58325 16.6321 3.60117 16.0247 3.69075 14.1148C3.78034 12.2049 4.07954 10.9077 4.52388 9.76462C4.97222 8.56811 5.67736 7.48441 6.58967 6.58979C7.48491 5.67825 8.56844 4.97322 9.7645 4.524C10.9076 4.07967 12.2048 3.78046 14.1147 3.69087C16.0246 3.60667 16.632 3.58337 21.4999 3.58337ZM21.4999 12.5417C19.124 12.5417 16.8454 13.4855 15.1654 15.1655C13.4854 16.8456 12.5416 19.1241 12.5416 21.5C12.5416 23.8759 13.4854 26.1545 15.1654 27.8345C16.8454 29.5146 19.124 30.4584 21.4999 30.4584C23.8758 30.4584 26.1544 29.5146 27.8344 27.8345C29.5144 26.1545 30.4583 23.8759 30.4583 21.5C30.4583 19.1241 29.5144 16.8456 27.8344 15.1655C26.1544 13.4855 23.8758 12.5417 21.4999 12.5417ZM33.1458 12.0938C33.1458 11.4998 32.9098 10.9302 32.4898 10.5102C32.0698 10.0902 31.5001 9.85421 30.9062 9.85421C30.3122 9.85421 29.7425 10.0902 29.3225 10.5102C28.9025 10.9302 28.6666 11.4998 28.6666 12.0938C28.6666 12.6878 28.9025 13.2574 29.3225 13.6774C29.7425 14.0974 30.3122 14.3334 30.9062 14.3334C31.5001 14.3334 32.0698 14.0974 32.4898 13.6774C32.9098 13.2574 33.1458 12.6878 33.1458 12.0938ZM21.4999 16.125C22.9255 16.125 24.2926 16.6913 25.3006 17.6993C26.3086 18.7073 26.8749 20.0745 26.8749 21.5C26.8749 22.9256 26.3086 24.2927 25.3006 25.3007C24.2926 26.3087 22.9255 26.875 21.4999 26.875C20.0744 26.875 18.7072 26.3087 17.6992 25.3007C16.6912 24.2927 16.1249 22.9256 16.1249 21.5C16.1249 20.0745 16.6912 18.7073 17.6992 17.6993C18.7072 16.6913 20.0744 16.125 21.4999 16.125Z" fill="white"/>
</svg>
