<svg width="38" height="38" viewBox="0 0 38 38" fill="none" xmlns="http://www.w3.org/2000/svg">
<path d="M22.5 21.51H21.71L21.43 21.24C22.4439 20.064 23.0011 18.5627 23 17.01C23 15.7244 22.6188 14.4677 21.9046 13.3988C21.1903 12.3299 20.1752 11.4968 18.9874 11.0048C17.7997 10.5128 16.4928 10.3841 15.2319 10.6349C13.971 10.8857 12.8128 11.5048 11.9038 12.4138C10.9948 13.3229 10.3757 14.481 10.1249 15.7419C9.87409 17.0028 10.0028 18.3097 10.4948 19.4975C10.9868 20.6852 11.8199 21.7003 12.8888 22.4146C13.9577 23.1288 15.2144 23.51 16.5 23.51C18.11 23.51 19.59 22.92 20.73 21.94L21 22.22V23.01L26 28L27.49 26.51L22.5 21.51ZM16.5 21.51C14.01 21.51 12 19.5 12 17.01C12 14.52 14.01 12.51 16.5 12.51C18.99 12.51 21 14.52 21 17.01C21 19.5 18.99 21.51 16.5 21.51Z" fill="#C1C1C1"/>
</svg>
