<svg width="43" height="43" viewBox="0 0 43 43" fill="none" xmlns="http://www.w3.org/2000/svg">
<path d="M36.6755 3.58338H6.32467C5.9835 3.57864 5.64473 3.64116 5.32772 3.76736C5.01071 3.89355 4.72167 4.08096 4.4771 4.31888C4.23252 4.5568 4.03721 4.84056 3.90232 5.15397C3.76743 5.46738 3.69559 5.80429 3.69092 6.14546V36.8546C3.69559 37.1958 3.76743 37.5327 3.90232 37.8461C4.03721 38.1595 4.23252 38.4433 4.4771 38.6812C4.72167 38.9191 5.01071 39.1065 5.32772 39.2327C5.64473 39.3589 5.9835 39.4215 6.32467 39.4167H36.6755C37.0167 39.4215 37.3554 39.3589 37.6724 39.2327C37.9895 39.1065 38.2785 38.9191 38.5231 38.6812C38.7676 38.4433 38.963 38.1595 39.0979 37.8461C39.2327 37.5327 39.3046 37.1958 39.3093 36.8546V6.14546C39.3046 5.80429 39.2327 5.46738 39.0979 5.15397C38.963 4.84056 38.7676 4.5568 38.5231 4.31888C38.2785 4.08096 37.9895 3.89355 37.6724 3.76736C37.3554 3.64116 37.0167 3.57864 36.6755 3.58338ZM14.4947 33.5759H9.11967V17.4509H14.4947V33.5759ZM11.8072 15.1934C11.0659 15.1934 10.355 14.8989 9.8308 14.3747C9.30664 13.8506 9.01217 13.1397 9.01217 12.3984C9.01217 11.6571 9.30664 10.9462 9.8308 10.422C10.355 9.89785 11.0659 9.60338 11.8072 9.60338C12.2008 9.55874 12.5994 9.59774 12.9769 9.71784C13.3544 9.83793 13.7023 10.0364 13.9978 10.3003C14.2932 10.5641 14.5297 10.8874 14.6915 11.249C14.8534 11.6106 14.9371 12.0022 14.9371 12.3984C14.9371 12.7945 14.8534 13.1862 14.6915 13.5478C14.5297 13.9093 14.2932 14.2326 13.9978 14.4965C13.7023 14.7604 13.3544 14.9588 12.9769 15.0789C12.5994 15.199 12.2008 15.238 11.8072 15.1934ZM33.8805 33.5759H28.5055V24.9221C28.5055 22.7542 27.7351 21.3388 25.7822 21.3388C25.1778 21.3432 24.5893 21.5328 24.0959 21.882C23.6026 22.2312 23.2281 22.7232 23.023 23.2917C22.8828 23.7128 22.822 24.1563 22.8438 24.5996V33.558H17.4688V17.433H22.8438V19.7084C23.3321 18.8611 24.0423 18.1631 24.8979 17.6895C25.7535 17.216 26.722 16.9848 27.6993 17.0209C31.2826 17.0209 33.8805 19.3321 33.8805 24.295V33.5759Z" fill="white"/>
</svg>
