<svg width="13" height="14" viewBox="0 0 13 14" fill="none" xmlns="http://www.w3.org/2000/svg">
<path fill-rule="evenodd" clip-rule="evenodd" d="M2.59392 11.0535C5.50305 10.6285 7.50607 10.6651 10.419 11.0684C10.63 11.099 10.8227 11.2049 10.9617 11.3665C11.1007 11.5281 11.1765 11.7346 11.1751 11.9477C11.1751 12.1517 11.105 12.3498 10.9783 12.5045C10.7576 12.7742 10.5314 13.0395 10.3 13.3001H11.4224C11.493 13.2159 11.564 13.1301 11.6358 13.043C11.8879 12.7338 12.0254 12.3471 12.0251 11.9482C12.0251 11.0875 11.3969 10.3459 10.5355 10.2269C7.55367 9.81425 5.46947 9.77472 2.4711 10.2129C1.6007 10.34 0.975098 11.0931 0.975098 11.9596C0.975098 12.3443 1.10047 12.7246 1.33805 13.0328C1.40817 13.1237 1.47745 13.213 1.5463 13.3005H2.64152C2.42623 13.0428 2.21623 12.7806 2.01167 12.5143C1.89011 12.3548 1.82453 12.1597 1.8251 11.9592C1.8251 11.5015 2.15405 11.1177 2.59392 11.0535ZM6.5001 6.9251C6.83497 6.9251 7.16656 6.85914 7.47594 6.73099C7.78532 6.60284 8.06643 6.41501 8.30322 6.17822C8.54001 5.94143 8.72784 5.66032 8.85599 5.35094C8.98414 5.04156 9.0501 4.70997 9.0501 4.3751C9.0501 4.04023 8.98414 3.70864 8.85599 3.39926C8.72784 3.08987 8.54001 2.80876 8.30322 2.57198C8.06643 2.33519 7.78532 2.14735 7.47594 2.01921C7.16656 1.89106 6.83497 1.8251 6.5001 1.8251C5.8238 1.8251 5.17519 2.09376 4.69698 2.57198C4.21876 3.05019 3.9501 3.6988 3.9501 4.3751C3.9501 5.0514 4.21876 5.7 4.69698 6.17822C5.17519 6.65644 5.8238 6.9251 6.5001 6.9251ZM6.5001 7.7751C7.40183 7.7751 8.26664 7.41688 8.90426 6.77926C9.54188 6.14164 9.9001 5.27683 9.9001 4.3751C9.9001 3.47336 9.54188 2.60856 8.90426 1.97093C8.26664 1.33331 7.40183 0.975098 6.5001 0.975098C5.59836 0.975098 4.73356 1.33331 4.09593 1.97093C3.45831 2.60856 3.1001 3.47336 3.1001 4.3751C3.1001 5.27683 3.45831 6.14164 4.09593 6.77926C4.73356 7.41688 5.59836 7.7751 6.5001 7.7751Z" fill="black"/>
</svg>
